REM DIRINDEX 1\2,1\3,1\4,1\5\6,1\5\7,1\8
REM DIRNAME folder01,folder02,folder03,folder04,folder05,folder06,folder07,folder08
TITLE ""
FILE "132 【132】Unit8 (1489 formulate_1500.mp3" MP3
  TRACK 01 AUDIO
    TITLE "0:"
    INDEX 01 00:00:00
  TRACK 02 AUDIO
    TITLE "8:cjc115_5179"
    INDEX 01 00:00:07
  TRACK 03 AUDIO
    TITLE "0:"
    INDEX 01 00:01:38
  TRACK 04 AUDIO
    TITLE "2:cjc115_5180"
    INDEX 01 00:02:12
  TRACK 05 AUDIO
    TITLE "0:"
    INDEX 01 00:03:41
  TRACK 06 AUDIO
    TITLE "3:cjc115_5181"
    INDEX 01 00:03:51
  TRACK 07 AUDIO
    TITLE "0:"
    INDEX 01 00:05:14
  TRACK 08 AUDIO
    TITLE "4:cjc115_5182"
    INDEX 01 00:05:16
  TRACK 09 AUDIO
    TITLE "0:"
    INDEX 01 00:09:24
  TRACK 10 AUDIO
    TITLE "2:cjc115_5183"
    INDEX 01 00:10:33
  TRACK 11 AUDIO
    TITLE "0:"
    INDEX 01 00:11:39
  TRACK 12 AUDIO
    TITLE "3:cjc115_5184"
    INDEX 01 00:11:44
  TRACK 13 AUDIO
    TITLE "0:"
    INDEX 01 00:12:56
  TRACK 14 AUDIO
    TITLE "4:cjc115_5185"
    INDEX 01 00:12:61
  TRACK 15 AUDIO
    TITLE "0:"
    INDEX 01 00:16:69
  TRACK 16 AUDIO
    TITLE "2:cjc115_5186"
    INDEX 01 00:17:74
  TRACK 17 AUDIO
    TITLE "0:"
    INDEX 01 00:19:05
  TRACK 18 AUDIO
    TITLE "3:cjc115_5187"
    INDEX 01 00:19:15
  TRACK 19 AUDIO
    TITLE "0:"
    INDEX 01 00:21:35
  TRACK 20 AUDIO
    TITLE "4:cjc115_5188"
    INDEX 01 00:21:57
  TRACK 21 AUDIO
    TITLE "0:"
    INDEX 01 00:25:09
  TRACK 22 AUDIO
    TITLE "2:cjc115_5189"
    INDEX 01 00:26:17
  TRACK 23 AUDIO
    TITLE "0:"
    INDEX 01 00:27:41
  TRACK 24 AUDIO
    TITLE "3:cjc115_5190"
    INDEX 01 00:27:49
  TRACK 25 AUDIO
    TITLE "0:"
    INDEX 01 00:29:74
  TRACK 26 AUDIO
    TITLE "4:cjc115_5191"
    INDEX 01 00:30:01
  TRACK 27 AUDIO
    TITLE "0:"
    INDEX 01 00:35:02
  TRACK 28 AUDIO
    TITLE "2:cjc115_5192"
    INDEX 01 00:36:09
  TRACK 29 AUDIO
    TITLE "0:"
    INDEX 01 00:37:30
  TRACK 30 AUDIO
    TITLE "3:cjc115_5193"
    INDEX 01 00:37:36
  TRACK 31 AUDIO
    TITLE "0:"
    INDEX 01 00:38:71
  TRACK 32 AUDIO
    TITLE "4:cjc115_5194"
    INDEX 01 00:39:09
  TRACK 33 AUDIO
    TITLE "0:"
    INDEX 01 00:42:65
  TRACK 34 AUDIO
    TITLE "2:cjc115_5195"
    INDEX 01 00:43:72
  TRACK 35 AUDIO
    TITLE "0:"
    INDEX 01 00:45:24
  TRACK 36 AUDIO
    TITLE "3:cjc115_5196"
    INDEX 01 00:45:33
  TRACK 37 AUDIO
    TITLE "0:"
    INDEX 01 00:48:08
  TRACK 38 AUDIO
    TITLE "4:cjc115_5197"
    INDEX 01 00:48:18
  TRACK 39 AUDIO
    TITLE "0:"
    INDEX 01 00:52:18
  TRACK 40 AUDIO
    TITLE "2:cjc115_5198"
    INDEX 01 00:53:27
  TRACK 41 AUDIO
    TITLE "0:"
    INDEX 01 00:54:44
  TRACK 42 AUDIO
    TITLE "3:cjc115_5199"
    INDEX 01 00:54:54
  TRACK 43 AUDIO
    TITLE "0:"
    INDEX 01 00:56:47
  TRACK 44 AUDIO
    TITLE "4:cjc115_5200"
    INDEX 01 00:56:57
  TRACK 45 AUDIO
    TITLE "0:"
    INDEX 01 01:00:47
  TRACK 46 AUDIO
    TITLE "2:cjc115_5201"
    INDEX 01 01:01:54
  TRACK 47 AUDIO
    TITLE "0:"
    INDEX 01 01:03:24
  TRACK 48 AUDIO
    TITLE "3:cjc115_5202"
    INDEX 01 01:03:33
  TRACK 49 AUDIO
    TITLE "0:"
    INDEX 01 01:04:66
  TRACK 50 AUDIO
    TITLE "4:cjc115_5203"
    INDEX 01 01:05:07
  TRACK 51 AUDIO
    TITLE "0:"
    INDEX 01 01:08:56
  TRACK 52 AUDIO
    TITLE "2:cjc115_5204"
    INDEX 01 01:09:65
  TRACK 53 AUDIO
    TITLE "0:"
    INDEX 01 01:11:17
  TRACK 54 AUDIO
    TITLE "3:cjc115_5205"
    INDEX 01 01:11:25
  TRACK 55 AUDIO
    TITLE "0:"
    INDEX 01 01:13:38
  TRACK 56 AUDIO
    TITLE "4:cjc115_5206"
    INDEX 01 01:13:45
  TRACK 57 AUDIO
    TITLE "0:"
    INDEX 01 01:17:51
  TRACK 58 AUDIO
    TITLE "2:cjc115_5207"
    INDEX 01 01:18:58
  TRACK 59 AUDIO
    TITLE "0:"
    INDEX 01 01:19:66
  TRACK 60 AUDIO
    TITLE "3:cjc115_5208"
    INDEX 01 01:19:74
  TRACK 61 AUDIO
    TITLE "0:"
    INDEX 01 01:21:12
  TRACK 62 AUDIO
    TITLE "4:cjc115_5209"
    INDEX 01 01:21:20
  TRACK 63 AUDIO
    TITLE "0:"
    INDEX 01 01:24:41
  TRACK 64 AUDIO
    TITLE "2:cjc115_5210"
    INDEX 01 01:25:49
  TRACK 65 AUDIO
    TITLE "0:"
    INDEX 01 01:26:62
  TRACK 66 AUDIO
    TITLE "3:cjc115_5211"
    INDEX 01 01:26:74
  TRACK 67 AUDIO
    TITLE "0:"
    INDEX 01 01:29:03
  TRACK 68 AUDIO
    TITLE "4:cjc115_5212"
    INDEX 01 01:29:13
  TRACK 69 AUDIO
    TITLE "0:"
    INDEX 01 01:31:24
  TRACK 70 AUDIO
    TITLE "2:cjc115_5213"
    INDEX 01 01:32:29
  TRACK 71 AUDIO
    TITLE "0:"
    INDEX 01 01:33:66
  TRACK 72 AUDIO
    TITLE "3:cjc115_5214"
    INDEX 01 01:33:72
  TRACK 73 AUDIO
    TITLE "0:"
    INDEX 01 01:35:08
  TRACK 74 AUDIO
    TITLE "4:cjc115_5215"
    INDEX 01 01:35:18
  TRACK 75 AUDIO
    TITLE "0:"
    INDEX 01 01:39:17
